<?xml version="1.0" encoding="UTF-8"?><svg id="Layer_1" xmlns="http://www.w3.org/2000/svg" viewBox="0 0 115.07 18.15"><defs><style>.cls-1{fill:#030303;}</style></defs><path class="cls-1" d="M20.52,7.82c-.33-.75-.78-1.39-1.37-1.95-.58-.55-1.26-.98-2.05-1.29-.78-.3-1.64-.46-2.57-.46s-1.78,.15-2.58,.46c-.79,.3-1.48,.73-2.07,1.29-.59,.55-1.04,1.2-1.37,1.95-.32,.75-.47,1.56-.47,2.44s.16,1.69,.47,2.44c.33,.75,.78,1.39,1.36,1.95,.59,.55,1.28,.98,2.07,1.29,.8,.3,1.67,.46,2.61,.46s1.78-.15,2.56-.46c.79-.3,1.47-.73,2.05-1.27,.59-.55,1.04-1.2,1.37-1.95,.33-.76,.49-1.58,.49-2.46s-.16-1.71-.49-2.44Zm-2.57,3.98c-.18,.46-.44,.86-.78,1.2s-.73,.6-1.19,.78c-.44,.18-.93,.27-1.46,.27s-1.02-.09-1.47-.27c-.45-.18-.85-.44-1.19-.78-.33-.34-.59-.74-.78-1.2-.18-.47-.27-.99-.27-1.54s.09-1.08,.27-1.54c.19-.46,.46-.86,.8-1.2s.73-.6,1.17-.78c.45-.18,.94-.27,1.47-.27s1.02,.09,1.47,.27c.45,.18,.84,.44,1.17,.78,.34,.34,.6,.74,.78,1.2,.19,.46,.29,.98,.29,1.54s-.1,1.08-.29,1.54Z"/><polygon class="cls-1" points="23.07 16.19 23.07 4.33 25.82 4.33 25.82 13.96 31.76 13.96 31.76 16.19 23.07 16.19"/><rect class="cls-1" x="35.82" y="9.11" width="5.71" height="2.13"/><polygon class="cls-1" points="36.02 13.99 42.48 13.99 42.48 16.19 33.29 16.19 33.29 4.33 42.26 4.33 42.26 6.54 36.02 6.54 36.02 13.99"/><path class="cls-1" d="M50.39,16.4c-.94,0-1.8-.15-2.59-.44-.78-.3-1.46-.73-2.05-1.29-.58-.55-1.03-1.2-1.36-1.95-.32-.75-.47-1.56-.47-2.46s.16-1.71,.47-2.46c.33-.75,.78-1.39,1.37-1.95,.59-.55,1.28-.98,2.07-1.27,.79-.3,1.66-.46,2.61-.46,1.05,0,1.99,.18,2.83,.53,.85,.35,1.56,.86,2.13,1.52l-1.76,1.63c-.43-.45-.9-.78-1.41-1-.51-.23-1.06-.34-1.66-.34s-1.1,.09-1.58,.27c-.47,.18-.89,.44-1.24,.78-.34,.34-.6,.74-.8,1.2-.18,.46-.27,.98-.27,1.54s.09,1.06,.27,1.52c.19,.46,.46,.87,.8,1.22,.35,.34,.76,.6,1.22,.78,.47,.18,.99,.27,1.56,.27s1.07-.08,1.58-.25c.52-.18,1.02-.48,1.51-.9l1.56,1.98c-.64,.49-1.39,.86-2.25,1.12-.85,.26-1.69,.39-2.54,.39Z"/><polygon class="cls-1" points="52.67 14.53 52.67 10.08 55.18 10.08 55.18 14.89 52.67 14.53"/><polygon class="cls-1" points="56.17 16.19 61.46 4.33 64.17 4.33 69.47 16.19 66.59 16.19 62.25 5.72 63.34 5.72 58.98 16.19 56.17 16.19"/><polygon class="cls-1" points="58.81 13.65 59.54 11.57 65.64 11.57 66.39 13.65 58.81 13.65"/><path class="cls-1" d="M80.03,14.41c-.69,.6-1.43,1.04-2.22,1.34-.79,.28-1.58,.4-2.38,.35-.8-.04-1.56-.24-2.3-.59-.73-.36-1.38-.87-1.96-1.55-.58-.68-1-1.4-1.25-2.17-.24-.78-.32-1.57-.25-2.36,.08-.8,.32-1.57,.72-2.3,.39-.74,.94-1.41,1.64-2.02,.78-.67,1.6-1.14,2.46-1.41,.86-.28,1.73-.35,2.61-.19-.12,.26-.26,.65-.32,1.13-.06,.52,0,.96,.05,1.25-.35-.06-.97-.1-1.7,.1-.53,.15-1.02,.41-1.46,.79-.42,.36-.74,.76-.98,1.2-.23,.44-.37,.9-.4,1.38-.04,.48,.03,.95,.18,1.43,.17,.47,.43,.92,.8,1.34,.37,.43,.77,.76,1.21,.99,.45,.23,.91,.36,1.39,.39,.48,.04,.95-.03,1.42-.2,.47-.17,.91-.43,1.33-.79,.44-.38,.78-.82,1.01-1.32,.22-.5,.33-1.07,.33-1.69,.32,.08,.73,.14,1.2,.16,.47,.02,.87-.03,1.2-.08,0,.27,0,.64-.07,1.06-.09,.51-.25,1.02-.49,1.51-.39,.81-.98,1.56-1.76,2.24Z"/><polygon class="cls-1" points="81.19 16.19 86.47 4.33 89.18 4.33 94.48 16.19 91.6 16.19 87.27 5.72 88.35 5.72 84 16.19 81.19 16.19"/><polygon class="cls-1" points="83.83 13.65 84.56 11.57 90.65 11.57 91.4 13.65 83.83 13.65"/><polygon class="cls-1" points="97.57 16.19 97.57 6.57 93.78 6.57 93.78 4.33 104.11 4.33 104.11 6.57 100.32 6.57 100.32 16.19 97.57 16.19"/><path class="cls-1" d="M13.02,4.78l-3.11-2.96c-.16-.16-.43-.03-.42,.19,.07,1.55,.15,3.09,.22,4.64,0,.19,.21,.3,.38,.2,.96-.56,1.92-1.12,2.89-1.68,.14-.08,.17-.28,.05-.4Z"/><path class="cls-1" d="M19.13,1.85c-1.04,.99-2.07,1.98-3.11,2.96-.12,.12-.1,.31,.05,.4l2.89,1.68c.16,.09,.37-.02,.38-.2,.07-1.55,.15-3.09,.22-4.64,.01-.23-.26-.35-.42-.19Z"/><path class="cls-1" d="M76.9,7.76c-.45,0-.9,1.38-.87,2.57,.03,1.13,.51,2.44,.95,2.43,.44-.01,.83-1.32,.84-2.38,.01-1.21-.46-2.62-.92-2.62Z"/></svg>